<svg width="24" height="24" viewBox="0 0 24 24" fill="none" xmlns="http://www.w3.org/2000/svg">
<circle cx="12" cy="12" r="12" fill="#8C404E"/>
<path d="M6.663 16.891C6.38433 16.891 6.124 16.6123 5.882 16.055C5.64733 15.505 5.45667 14.6947 5.31 13.624C5.17067 12.546 5.101 11.2333 5.101 9.686C5.101 9.03333 5.13767 8.53467 5.211 8.19C5.29167 7.84533 5.40167 7.61067 5.541 7.486C5.68767 7.36133 5.86 7.299 6.058 7.299C6.27067 7.299 6.41 7.354 6.476 7.464C6.54933 7.574 6.586 7.71333 6.586 7.882C6.586 7.99933 6.564 8.12767 6.52 8.267C6.476 8.399 6.38067 8.564 6.234 8.762C6.21933 9.026 6.20467 9.27167 6.19 9.499C6.18267 9.72633 6.179 9.95733 6.179 10.192C6.179 10.7347 6.19367 11.2847 6.223 11.842C6.25233 12.3993 6.289 12.9347 6.333 13.448C6.377 13.9613 6.42833 14.4233 6.487 14.834C6.553 15.2447 6.619 15.5747 6.685 15.824C6.817 15.472 6.97833 15.0467 7.169 14.548C7.35967 14.0493 7.565 13.5177 7.785 12.953C8.005 12.381 8.225 11.8127 8.445 11.248C8.67233 10.6833 8.885 10.1553 9.083 9.664C9.281 9.16533 9.44967 8.74367 9.589 8.399C9.73567 8.047 9.83833 7.80867 9.897 7.684C9.97033 7.52267 10.0583 7.36133 10.161 7.2C10.271 7.03133 10.3883 6.892 10.513 6.782C10.6377 6.66467 10.766 6.606 10.898 6.606C11.1473 6.606 11.272 6.782 11.272 7.134C11.272 7.178 11.2133 7.354 11.096 7.662C10.986 7.96267 10.832 8.35867 10.634 8.85C10.4433 9.334 10.227 9.86933 9.985 10.456C9.743 11.0353 9.49 11.6293 9.226 12.238C8.96933 12.832 8.71267 13.4077 8.456 13.965C8.19933 14.515 7.95733 15.01 7.73 15.45C7.50267 15.89 7.29733 16.2383 7.114 16.495C6.93067 16.759 6.78033 16.891 6.663 16.891ZM19.592 16C19.592 16.0733 19.5516 16.1467 19.471 16.22C19.3903 16.2933 19.2656 16.3337 19.097 16.341C18.8843 16.341 18.646 16.2567 18.382 16.088C18.1253 15.9267 17.854 15.7067 17.568 15.428C17.282 15.142 16.996 14.823 16.71 14.471C16.424 14.119 16.149 13.756 15.885 13.382C15.621 13.0007 15.3826 12.634 15.17 12.282C14.994 13.0373 14.851 13.6753 14.741 14.196C14.6383 14.7167 14.5393 15.1127 14.444 15.384C14.356 15.648 14.246 15.78 14.114 15.78C13.9966 15.78 13.883 15.7103 13.773 15.571C13.6703 15.4243 13.619 15.1493 13.619 14.746C13.619 14.5333 13.6336 14.317 13.663 14.097C13.6923 13.8697 13.7436 13.602 13.817 13.294C13.8903 12.9787 13.9893 12.5827 14.114 12.106C14.0333 12.04 13.982 11.974 13.96 11.908C13.938 11.842 13.927 11.7687 13.927 11.688C13.927 11.5853 13.9563 11.4827 14.015 11.38C14.0736 11.2773 14.1873 11.2003 14.356 11.149C14.6126 10.291 14.818 9.61267 14.972 9.114C15.126 8.608 15.2616 8.24867 15.379 8.036C15.5036 7.816 15.6356 7.706 15.775 7.706C16.0756 7.706 16.226 7.88567 16.226 8.245C16.226 8.377 16.1636 8.67033 16.039 9.125C15.9143 9.57233 15.7236 10.2617 15.467 11.193C16.0463 10.775 16.589 10.346 17.095 9.906C17.601 9.466 18.063 9.048 18.481 8.652C18.899 8.24867 19.2656 7.88933 19.581 7.574C19.8963 7.25867 20.153 7.00933 20.351 6.826C20.549 6.64267 20.681 6.551 20.747 6.551C20.8716 6.551 20.9743 6.59133 21.055 6.672C21.143 6.75267 21.187 6.84433 21.187 6.947C21.187 7.07167 21.1356 7.19267 21.033 7.31C20.857 7.51533 20.6223 7.783 20.329 8.113C20.0356 8.443 19.7056 8.79867 19.339 9.18C18.9723 9.554 18.5873 9.92067 18.184 10.28C17.788 10.6393 17.392 10.9583 16.996 11.237C16.6 11.5083 16.2296 11.699 15.885 11.809C15.9876 11.9263 16.0903 12.0473 16.193 12.172C16.2956 12.2967 16.391 12.4177 16.479 12.535C16.743 12.8797 17.0436 13.2463 17.381 13.635C17.7256 14.0237 18.074 14.394 18.426 14.746C18.778 15.0907 19.097 15.3767 19.383 15.604C19.5223 15.7287 19.592 15.8607 19.592 16Z" fill="white"/>
</svg>
